<mxfile host="65bd71144e">
    <diagram id="WwLS9RG3F_lT-uzxJHaA" name="ページ1">
        <mxGraphModel dx="672" dy="599" grid="1" gridSize="10" guides="1" tooltips="1" connect="1" arrows="1" fold="1" page="1" pageScale="1" pageWidth="827" pageHeight="1169" background="#ffffff" math="0" shadow="0">
            <root>
                <mxCell id="0"/>
                <mxCell id="1" parent="0"/>
                <mxCell id="23" value="" style="rounded=0;whiteSpace=wrap;html=1;fontFamily=Helvetica;" parent="1" vertex="1">
                    <mxGeometry x="160" y="280" width="340" height="390" as="geometry"/>
                </mxCell>
                <mxCell id="3" value="MainWindow class&lt;div&gt;(QWidget,MessageMixin)&lt;/div&gt;" style="rounded=0;whiteSpace=wrap;html=1;verticalAlign=top;fontFamily=Helvetica;" parent="1" vertex="1">
                    <mxGeometry x="180" y="300" width="160" height="350" as="geometry"/>
                </mxCell>
                <mxCell id="5" value="Router class&lt;div&gt;(Worker)&lt;/div&gt;" style="rounded=0;whiteSpace=wrap;html=1;fontFamily=Helvetica;fillColor=#dae8fc;strokeColor=#6c8ebf;" parent="1" vertex="1">
                    <mxGeometry x="200" y="390" width="120" height="60" as="geometry"/>
                </mxCell>
                <mxCell id="7" value="Thread1 class&lt;div&gt;&lt;span style=&quot;color: rgb(63, 63, 63);&quot;&gt;(Worker)&lt;/span&gt;&lt;/div&gt;" style="rounded=0;whiteSpace=wrap;html=1;fontFamily=Helvetica;fillColor=#E6E6E6;" parent="1" vertex="1">
                    <mxGeometry x="200" y="480" width="120" height="60" as="geometry"/>
                </mxCell>
                <mxCell id="8" value="Thread2 class&lt;div&gt;&lt;span style=&quot;color: rgb(63, 63, 63);&quot;&gt;(Worker)&lt;/span&gt;&lt;/div&gt;" style="rounded=0;whiteSpace=wrap;html=1;fontFamily=Helvetica;gradientColor=none;fillStyle=auto;fillColor=#E6E6E6;" parent="1" vertex="1">
                    <mxGeometry x="200" y="570" width="120" height="60" as="geometry"/>
                </mxCell>
                <mxCell id="15" value="" style="endArrow=classic;html=1;dashed=1;fontFamily=Helvetica;entryX=0.5;entryY=1;entryDx=0;entryDy=0;" parent="1" edge="1" target="27" source="26">
                    <mxGeometry width="50" height="50" relative="1" as="geometry">
                        <mxPoint x="419.5" y="390" as="sourcePoint"/>
                        <mxPoint x="419.5" y="340" as="targetPoint"/>
                    </mxGeometry>
                </mxCell>
                <mxCell id="26" value="Worker class&lt;div&gt;(QThread, MessageMixin)&lt;/div&gt;" style="rounded=0;whiteSpace=wrap;html=1;fontFamily=Helvetica;fillColor=#dae8fc;strokeColor=#6c8ebf;" vertex="1" parent="1">
                    <mxGeometry x="360" y="390" width="120" height="60" as="geometry"/>
                </mxCell>
                <mxCell id="27" value="MessageMixin class" style="rounded=0;whiteSpace=wrap;html=1;fontFamily=Helvetica;fillColor=#dae8fc;strokeColor=#6c8ebf;" vertex="1" parent="1">
                    <mxGeometry x="360" y="300" width="120" height="60" as="geometry"/>
                </mxCell>
                <mxCell id="34" value="" style="endArrow=classic;html=1;dashed=1;fontFamily=Helvetica;entryX=0.5;entryY=1;entryDx=0;entryDy=0;" edge="1" parent="1">
                    <mxGeometry width="50" height="50" relative="1" as="geometry">
                        <mxPoint x="419.82" y="480" as="sourcePoint"/>
                        <mxPoint x="419.82" y="450" as="targetPoint"/>
                        <Array as="points">
                            <mxPoint x="420" y="600"/>
                        </Array>
                    </mxGeometry>
                </mxCell>
                <mxCell id="35" value="" style="endArrow=none;html=1;entryX=0.912;entryY=0.583;entryDx=0;entryDy=0;entryPerimeter=0;dashed=1;" edge="1" parent="1">
                    <mxGeometry width="50" height="50" relative="1" as="geometry">
                        <mxPoint x="320" y="509.79999999999995" as="sourcePoint"/>
                        <mxPoint x="420.08000000000015" y="509.6399999999999" as="targetPoint"/>
                    </mxGeometry>
                </mxCell>
                <mxCell id="36" value="" style="endArrow=none;html=1;entryX=0.912;entryY=0.583;entryDx=0;entryDy=0;entryPerimeter=0;dashed=1;" edge="1" parent="1">
                    <mxGeometry width="50" height="50" relative="1" as="geometry">
                        <mxPoint x="320" y="599.8" as="sourcePoint"/>
                        <mxPoint x="420.08000000000015" y="599.6399999999999" as="targetPoint"/>
                    </mxGeometry>
                </mxCell>
                <mxCell id="39" value="" style="endArrow=classic;html=1;dashed=1;entryX=0;entryY=0.5;entryDx=0;entryDy=0;" edge="1" parent="1" target="26">
                    <mxGeometry width="50" height="50" relative="1" as="geometry">
                        <mxPoint x="320" y="419.64" as="sourcePoint"/>
                        <mxPoint x="400" y="419.64" as="targetPoint"/>
                    </mxGeometry>
                </mxCell>
                <mxCell id="40" value="" style="endArrow=classic;html=1;dashed=1;entryX=0;entryY=0.5;entryDx=0;entryDy=0;" edge="1" parent="1">
                    <mxGeometry width="50" height="50" relative="1" as="geometry">
                        <mxPoint x="340" y="330" as="sourcePoint"/>
                        <mxPoint x="360" y="330.17" as="targetPoint"/>
                    </mxGeometry>
                </mxCell>
            </root>
        </mxGraphModel>
    </diagram>
</mxfile>